<svg width="264" height="69" viewBox="0 0 264 69" fill="none" xmlns="http://www.w3.org/2000/svg">
<path fill-rule="evenodd" clip-rule="evenodd" d="M20.6711 7.12253H75.965C75.965 8.65056 77.6843 11.8091 81.7655 11.8091C85.8468 11.8091 87.0136 8.38482 87.0136 7.12253H201.491C202.703 8.06647 203.472 9.01042 204.118 9.80212C205.073 10.9758 205.755 11.8118 207.196 11.8118C209.016 11.8118 209.014 8.55921 209.011 7.22495V7.1253H243.402V65.628C243.402 65.628 222.396 65.3816 201.065 65.3816C187.756 65.5726 163.988 65.8411 154.385 65.6474C151.967 65.6474 151.13 64.7532 149.999 63.5491L149.926 63.4716C149.906 63.4522 149.887 63.43 149.87 63.4107C149.32 62.8238 146.104 60.7006 143.345 62.1788C140.585 63.657 128.285 67.3553 123.266 67.6017C114.666 68.0252 112.223 67.6017 106.701 66.1235C104.945 66.1235 102.811 65.138 100.678 64.1525C98.5442 63.1671 96.4106 62.1816 94.6547 62.1816C92.6084 62.1816 91.4866 62.9761 90.3198 63.8037C89.0514 64.7006 87.7323 65.6391 85.1167 65.6335C80.2661 65.6225 74.3922 65.6529 68.5974 65.6833C58.7691 65.7332 49.1749 65.783 45.212 65.6335C44.5158 65.6086 44.1043 65.6141 43.5378 65.6224C43.1855 65.628 42.7768 65.6335 42.2018 65.6335C31.1588 65.6335 20.6711 63.0674 20.6711 63.0674V7.12253Z" fill="#1D1D1D"/>
<path fill-rule="evenodd" clip-rule="evenodd" d="M179.16 43.7178C182.618 44.9082 182.139 49.4037 178.472 50.1705C178.165 50.2341 176.854 50.3144 175.561 50.3449C171.989 50.4307 172.128 50.5802 172.17 46.7435C172.201 43.8729 172.221 43.776 172.756 43.5518C173.21 43.3608 178.517 43.4992 179.157 43.7206L179.16 43.7178ZM177.471 25.4008C181.045 26.0486 181.699 30.461 178.435 31.9143C177.821 32.1884 173.393 32.3462 172.784 32.1164C172.221 31.9033 172.147 31.5074 172.147 28.7669C172.147 26.0264 172.209 25.6666 172.75 25.4368C173.187 25.2486 176.502 25.2236 177.474 25.398L177.471 25.4008ZM213.148 0.390313C211.812 0.700349 209.321 9.59451 209.321 19.5876C209.321 28.1634 209.321 28.2243 209.555 28.5122C210.017 29.088 209.828 29.0742 216.937 29.1323L223.6 29.1877L223.631 29.4645C223.659 29.733 222.734 31.0064 216.669 39.0452C215.916 40.0445 214.673 41.6971 213.907 42.7185C213.143 43.74 211.75 45.5974 210.815 46.8487C209.879 48.0971 208.971 49.3677 208.799 49.6694L206.449 59.2695C210.104 56.9968 206.494 65.3788 210.817 65.3788C212.751 65.3788 258.329 65.7885 258.794 65.5173C262.56 65.5173 262.56 60.9415 262.56 58.7241V40.612C262.56 39.0147 261.585 37.0991 257.036 37.0991L239.953 46.475L239.919 46.2424C239.885 45.9988 240.378 45.2514 244.544 39.2611C249.468 32.1773 250.767 30.3005 252.808 27.3136C255.144 23.8922 260.288 22.0956 261.204 18.2644L261.263 3.26092C261.263 3.26092 260.939 0.708659 257.039 0.387551C256.063 0.179937 213.766 0.246374 213.16 0.387551L213.148 0.390313ZM151.524 9.96821C150.949 10.0789 150.543 10.3696 150.357 10.8042C150.067 11.4879 151.079 62.4418 151.369 62.9124C151.837 63.6681 149.52 65.7027 168.145 65.6584C185.668 65.6169 191.389 65.1352 194.073 64.637C200.347 63.8979 208.467 61.4923 208.467 53.0521C208.467 47.9587 200.877 40.086 194.873 37.3095C193.512 36.6811 193.326 36.3517 194.073 35.9033C197.277 33.9877 198.698 32.4375 199.927 29.5143C200.769 27.5046 200.775 22.9676 199.935 20.9247C197.069 13.9544 189.478 10.4886 175.949 9.97098C172.736 9.84918 152.158 9.84088 151.524 9.96268V9.96821ZM89.0458 9.96821C88.4736 10.0789 88.1213 10.3336 87.9014 10.7931C87.6675 11.2803 87.6901 41.7746 87.9268 43.6154C89.3699 54.8293 94.0769 61.437 103.341 65.2487C106.464 66.5332 111.456 67.347 116.163 67.3415C132.392 67.3193 146.358 63.0453 148.111 48.0805C148.41 45.5338 144.379 38.9372 144.379 25.5032C144.379 9.66094 144.441 10.6492 143.426 10.1039C142.871 9.80489 123.24 9.8298 122.623 10.1315C121.69 10.5883 121.76 9.34538 121.76 25.3704C121.76 39.6569 121.749 40.1386 121.352 41.4729C119.773 46.7739 112.953 47.2058 110.92 42.1345C110.278 40.5261 110.306 41.2431 110.235 25.4479C110.162 9.25403 110.235 10.5606 109.412 10.1232C109.029 9.91562 90.0492 9.77998 89.0458 9.97652V9.96821ZM46.0491 9.96821C45.4713 10.0817 45.0683 10.3724 44.8822 10.807C44.5919 11.4907 43.2024 65.6944 43.7041 65.6916C45.2092 65.6916 43.9747 65.6916 63.6142 65.6916C82.9803 65.6916 86.0328 65.7332 86.5091 65.0384L86.7656 64.6619L86.7064 48.075L86.3569 47.7289C85.8327 47.2141 81.3117 47.1974 74.0512 47.1947C67.4136 47.1891 67.3769 47.1891 67.1655 46.9594C66.957 46.7324 66.9513 46.2341 66.895 28.8721C66.833 8.77789 66.9175 10.5578 66.0043 10.1094C65.5843 9.90455 47.0525 9.76614 46.0519 9.96268L46.0491 9.96821ZM27.8161 9.60005C27.599 9.62496 24.6593 1.92388 23.9829 1.99032C9.68165 6.45816 0 20.1856 0 31.4493C0 43.1697 5.08463 51.6099 9.35752 55.6183C16.2855 62.1207 23.6756 65.3678 35.6713 65.6916C37.4216 65.5671 41.2041 65.6916 43.7013 65.6916C43.7013 65.6916 42.7796 44.5372 42.4358 44.0749C41.9256 43.3912 37.7542 44.875 33.8054 44.8916C29.8708 44.9082 29.2535 44.8251 27.7428 44.0749C22.4439 41.4341 22.4186 34.2285 27.7005 31.4604C29.2479 30.6493 29.8088 30.569 33.9013 30.5662C37.788 30.5662 37.9374 30.5441 38.3968 29.9268C38.7379 29.4728 38.7491 11.117 38.4109 10.5661C38.1093 10.0762 37.7204 9.8907 36.7113 9.75229C35.8489 9.63603 28.6052 9.50869 27.8189 9.59451L27.8161 9.60005Z" fill="#1D1D1D"/>
<path d="M176.987 40.2549C176.747 40.3545 176.555 40.4016 176.488 40.4154C176.4 40.4348 176.338 40.4459 176.313 40.4486C176.257 40.4542 176.265 40.4569 176.313 40.4486C176.415 40.4403 176.592 40.432 176.849 40.4292C177.356 40.4209 178.03 40.4265 178.731 40.4431C179.433 40.4625 180.121 40.4929 180.656 40.5289C180.927 40.5483 181.13 40.5649 181.26 40.5815C181.327 40.5898 181.35 40.5926 181.338 40.5926C181.333 40.5926 181.305 40.587 181.26 40.576C181.22 40.5677 181.127 40.5427 181.003 40.5012L183.19 34.3448C182.72 34.1842 182.221 34.1289 182.052 34.1067C181.767 34.0735 181.446 34.0458 181.121 34.0237C180.465 33.9794 179.676 33.9434 178.912 33.924C178.148 33.9046 177.367 33.8963 176.73 33.9074C176.417 33.913 176.099 33.924 175.82 33.9434C175.682 33.9545 175.513 33.9683 175.338 33.996C175.248 34.0098 174.833 34.0652 174.385 34.2534L176.995 40.2493L176.987 40.2549ZM178.413 40.4874C178.421 39.7594 178.427 39.2556 178.441 38.8846C178.455 38.4805 178.472 38.3974 178.464 38.4417C178.452 38.4971 178.354 39.0562 177.846 39.6154C177.601 39.8867 177.35 40.0555 177.178 40.1552C177.037 40.2382 176.927 40.277 176.984 40.2549L174.374 34.259C174.267 34.3033 173.511 34.5884 172.886 35.2804C172.223 36.0112 172.015 36.8168 171.927 37.2846C171.789 38.0403 171.784 39.1587 171.77 40.4182L178.41 40.4902L178.413 40.4874ZM178.407 40.7946C178.185 40.8002 177.959 40.8057 177.776 40.8113C177.584 40.8168 177.415 40.8196 177.266 40.8223C177.116 40.8223 176.992 40.8223 176.891 40.8223C176.789 40.8223 176.719 40.8168 176.677 40.814C176.632 40.8113 176.632 40.8085 176.663 40.814C176.691 40.8196 176.772 40.8334 176.888 40.8722C177.004 40.9109 177.164 40.9746 177.345 41.0826C177.528 41.1933 177.708 41.3344 177.872 41.5088C178.035 41.6832 178.156 41.8604 178.241 42.0182C178.325 42.1732 178.371 42.3033 178.393 42.3863C178.404 42.4279 178.413 42.4611 178.418 42.4805C178.424 42.4998 178.424 42.5137 178.424 42.5137C178.424 42.5137 178.421 42.486 178.416 42.4196C178.41 42.3531 178.407 42.2646 178.404 42.1427C178.404 42.0237 178.402 41.8825 178.402 41.7165C178.402 41.5504 178.402 41.3677 178.407 41.16C178.407 40.9607 178.413 40.7227 178.416 40.4846L171.775 40.4126C171.767 41.268 171.744 42.1732 171.792 42.868C171.834 43.4659 171.956 44.8307 172.998 45.9379C174.112 47.1199 175.558 47.275 176.212 47.3192C176.905 47.3663 177.804 47.3331 178.574 47.3137L178.41 40.7946H178.407ZM180.718 40.6895C180.854 40.6618 180.893 40.6646 180.696 40.6839C180.555 40.6978 180.358 40.7116 180.115 40.7254C179.63 40.7531 179.019 40.7808 178.407 40.7946L178.571 47.3137C179.256 47.2971 179.946 47.2694 180.518 47.2334C180.966 47.2058 181.646 47.1615 182.091 47.0701L180.718 40.6895ZM180.997 40.5012C181.107 40.54 181.158 40.5732 181.167 40.5815C181.175 40.5898 181.167 40.5815 181.152 40.5621C181.121 40.5151 181.121 40.4763 181.124 40.4708C181.124 40.4708 181.124 40.4902 181.093 40.5206C181.079 40.5372 181.051 40.5621 180.997 40.5926C180.947 40.6203 180.857 40.6618 180.716 40.6895L182.097 47.0674C185.315 46.3947 187.429 43.9476 187.728 41.149C188.032 38.2978 186.395 35.4465 183.19 34.3448L180.997 40.5012ZM177.001 22.1288C176.736 22.2423 176.53 22.2866 176.499 22.2922C176.437 22.306 176.403 22.3088 176.42 22.306C176.448 22.3032 176.536 22.2921 176.688 22.2811C176.989 22.2617 177.404 22.2479 177.866 22.2423C178.323 22.2395 178.785 22.2451 179.174 22.2617C179.368 22.27 179.529 22.2811 179.653 22.2894C179.791 22.3005 179.831 22.3088 179.805 22.3032L181.006 15.8894C180.166 15.7371 178.791 15.7094 177.813 15.7177C177.266 15.7233 176.71 15.7399 176.234 15.7703C176 15.7869 175.747 15.8091 175.507 15.8395C175.389 15.8561 174.867 15.9198 174.346 16.144L177.001 22.1205V22.1288ZM178.39 22.4721C178.39 21.7828 178.393 21.2928 178.407 20.9274C178.421 20.5399 178.438 20.4209 178.438 20.4292C178.438 20.4319 178.371 20.8499 178.01 21.3233C177.604 21.8548 177.122 22.0762 176.998 22.1316L174.351 16.1523C173.957 16.3212 173.263 16.6727 172.694 17.4202C172.17 18.1067 171.987 18.8264 171.902 19.2887C171.755 20.0998 171.753 21.2181 171.753 22.4721H178.393H178.39ZM176.899 22.7766C176.973 22.8043 177.147 22.8735 177.356 23.0119C177.581 23.1586 177.804 23.3551 177.999 23.6015C178.368 24.0721 178.438 24.4901 178.441 24.4928C178.441 24.5039 178.421 24.3849 178.407 24.0001C178.393 23.6375 178.387 23.1503 178.387 22.4693H171.747C171.747 23.7233 171.753 24.8583 171.913 25.6915C172.004 26.1648 172.198 26.8929 172.742 27.5821C173.337 28.3378 174.061 28.6894 174.518 28.861L176.899 22.7738V22.7766ZM180 22.6465C180.231 22.5441 180.4 22.5053 180.414 22.5025C180.453 22.4942 180.462 22.4942 180.422 22.4998C180.344 22.5136 180.2 22.533 179.986 22.5524C179.56 22.5939 179.002 22.6271 178.418 22.6492C177.835 22.6714 177.277 22.6742 176.854 22.6631C176.64 22.6575 176.499 22.6492 176.423 22.6409C176.386 22.6382 176.398 22.6382 176.443 22.6465C176.457 22.6465 176.648 22.6797 176.902 22.7766L174.52 28.8638C175.067 29.0686 175.617 29.1185 175.786 29.1351C176.073 29.1628 176.384 29.1766 176.679 29.1849C177.28 29.2015 177.982 29.1932 178.661 29.1683C179.34 29.1434 180.042 29.1019 180.642 29.0437C180.938 29.0161 181.248 28.9773 181.53 28.9302C181.708 28.8998 182.232 28.8167 182.742 28.5898L180.005 22.6492L180 22.6465ZM179.802 22.306C179.926 22.3281 180.003 22.3613 180.045 22.3835C180.087 22.4056 180.112 22.4278 180.127 22.4416C180.155 22.4693 180.166 22.4998 180.172 22.5274C180.174 22.5524 180.169 22.5524 180.174 22.5385C180.177 22.533 180.177 22.5385 180.16 22.5524C180.143 22.5662 180.098 22.6049 180 22.6492L182.739 28.5898C185.766 27.2417 187.147 24.3434 186.742 21.589C186.339 18.8596 184.216 16.4762 181.006 15.8949L179.802 22.3088V22.306ZM257.402 0.487202C257.225 0.448448 257.078 0.434609 257.039 0.429073C256.974 0.423536 256.92 0.417995 256.881 0.415227C256.805 0.40969 256.728 0.406928 256.664 0.40416C256.531 0.398624 256.371 0.393082 256.19 0.390314C255.827 0.38201 255.328 0.373709 254.719 0.368172C253.498 0.354332 251.796 0.34326 249.778 0.334956C245.742 0.315578 240.42 0.307272 235.102 0.307272C229.783 0.307272 224.468 0.312808 220.437 0.332185C218.425 0.340489 216.728 0.351561 215.51 0.365402C214.904 0.370938 214.408 0.379247 214.048 0.387552C213.87 0.39032 213.709 0.395853 213.58 0.401389C213.518 0.401389 213.439 0.406928 213.363 0.412464C213.323 0.412464 213.267 0.420766 213.199 0.426302C213.163 0.42907 212.993 0.448447 212.788 0.495506L214.31 6.84294C214.112 6.88723 213.957 6.90384 213.94 6.90661C213.892 6.91215 213.859 6.91491 213.85 6.91491C213.83 6.91491 213.83 6.91491 213.867 6.91491C213.932 6.91491 214.039 6.90937 214.203 6.90384C214.524 6.89553 214.989 6.89 215.586 6.88447C216.779 6.87063 218.458 6.86231 220.468 6.85124C224.484 6.83463 229.792 6.82633 235.102 6.82633C240.415 6.82633 245.725 6.8374 249.75 6.85401C251.762 6.86232 253.448 6.87339 254.646 6.88723C255.246 6.89277 255.717 6.90108 256.041 6.90938C256.204 6.91215 256.317 6.91768 256.382 6.92045C256.416 6.92045 256.421 6.92045 256.404 6.92045C256.396 6.92045 256.368 6.92045 256.323 6.91214C256.303 6.91214 256.173 6.8983 256.007 6.86232L257.399 0.487202H257.402ZM260.102 2.02355C259.792 1.67752 259.389 1.31212 258.848 1.01039C258.321 0.719733 257.814 0.573016 257.408 0.487202L256.007 6.86232C256.007 6.86232 255.832 6.82633 255.59 6.69346C255.333 6.54952 255.173 6.39173 255.113 6.32529L260.102 2.02355ZM260.443 2.40279L260.102 2.02078L255.113 6.32529L255.454 6.7073L260.443 2.40279ZM261.269 11.0478V4.55643H254.629V11.0478H261.269ZM258.606 22.8319C259.496 21.5281 260.624 20.2077 261.027 18.2921C261.213 17.4118 261.255 16.4541 261.269 15.4105C261.283 14.3558 261.269 12.9136 261.269 11.045H254.629C254.629 13.0243 254.643 14.3226 254.629 15.3219C254.615 16.335 254.57 16.7475 254.524 16.9689C254.462 17.2596 254.541 17.0769 253.093 19.1946L258.606 22.8292V22.8319ZM250.314 34.8043C255.246 27.7178 256.554 25.8299 258.606 22.8319L253.093 19.1973C251.058 22.1731 249.767 24.0389 244.831 31.1254L250.314 34.8071V34.8043ZM246.229 39.4908C246.322 40.1275 246.187 40.6203 246.117 40.8306C246.049 41.0355 245.981 41.1517 245.998 41.1213C246.027 41.0659 246.142 40.8722 246.463 40.3905C247.078 39.4632 248.219 37.8133 250.316 34.8043L244.834 31.1226C242.757 34.104 241.568 35.8258 240.9 36.8306C240.578 37.315 240.316 37.7275 240.13 38.068C240.04 38.2369 239.908 38.4971 239.803 38.8126C239.696 39.1337 239.555 39.704 239.654 40.4016L246.227 39.4881L246.229 39.4908ZM246.263 39.7123L246.229 39.4798L239.659 40.4154L239.693 40.6479L246.263 39.7123ZM250.347 36.9746L243.002 36.9192L242.952 43.441L250.297 43.4964L250.347 36.9746ZM261.227 39.023C261.227 39.023 261.213 39.0036 261.193 38.9759C261.179 38.9566 261.154 38.9234 261.128 38.8846C261.075 38.8126 260.982 38.6908 260.86 38.5552C260.584 38.2452 260.218 37.9268 259.727 37.6722C258.907 37.2403 258.033 37.1517 257.506 37.1102C256.342 37.0133 254.214 37.005 250.345 36.9746L250.294 43.4964C254.372 43.5268 256.114 43.5379 256.945 43.6071C257.419 43.6459 257.078 43.6763 256.596 43.4244C255.939 43.0784 255.559 42.4556 255.818 42.8099L261.224 39.023H261.227ZM261.492 39.3884L261.227 39.023L255.821 42.8099L256.086 43.1753L261.492 39.3884ZM262.109 49.8161V41.2791H255.469V49.8161H262.109ZM259.744 62.0266C259.375 62.2397 260.635 61.6667 261.297 60.6453C261.898 59.7179 261.982 58.6771 262.022 58.1539C262.12 56.8805 262.109 54.4418 262.109 49.8161H255.469C255.469 54.6688 255.477 56.7089 255.401 57.6556C255.356 58.2425 255.305 57.747 255.694 57.1435C256.145 56.4459 257.12 55.9754 256.365 56.4127L259.742 62.0266H259.744ZM210.708 62.1705C211.077 62.3422 211.398 62.4086 211.457 62.4197C211.578 62.4446 211.68 62.4612 211.739 62.4667C211.86 62.4833 211.973 62.4944 212.052 62.4999C212.215 62.5138 212.407 62.5221 212.602 62.5304C212.999 62.547 213.54 62.5608 214.188 62.5747C215.493 62.5996 217.311 62.6217 219.462 62.6384C223.769 62.6716 229.459 62.6882 235.139 62.6882C240.818 62.6882 246.5 62.6688 250.793 62.6356C252.938 62.619 254.747 62.5968 256.041 62.5719C256.683 62.5581 257.219 62.5442 257.611 62.5276C257.802 62.5193 257.991 62.511 258.157 62.4972C258.234 62.4916 258.352 62.4806 258.482 62.4612C258.544 62.4529 258.659 62.4335 258.797 62.403C258.837 62.3947 259.274 62.3034 259.744 62.0294L256.368 56.4155C256.83 56.147 257.253 56.0612 257.275 56.0556C257.396 56.0279 257.487 56.0141 257.521 56.0086C257.594 55.9975 257.633 55.9947 257.611 55.9975C257.577 55.9975 257.489 56.0058 257.326 56.0113C257.01 56.0252 256.531 56.039 255.903 56.0501C254.651 56.075 252.873 56.0971 250.736 56.1138C246.466 56.147 240.804 56.1664 235.136 56.1664C229.465 56.1664 223.797 56.1497 219.513 56.1165C217.368 56.0999 215.581 56.0778 214.318 56.0528C213.684 56.039 213.199 56.0279 212.875 56.0141C212.709 56.0086 212.613 56.0003 212.573 55.9975C212.548 55.9975 212.579 55.9975 212.641 56.0058C212.669 56.0086 212.745 56.0196 212.847 56.0418C212.886 56.0501 213.194 56.111 213.554 56.2798L210.705 62.1705H210.708ZM208.109 51.1006C208.092 54.976 208.072 57.1408 208.174 58.3145C208.216 58.81 208.312 59.837 208.94 60.7532C209.315 61.3041 209.769 61.6584 210.158 61.8909C210.327 61.9934 210.476 62.0653 210.558 62.1013C210.6 62.1207 210.64 62.1401 210.66 62.1484C210.688 62.1595 210.696 62.165 210.708 62.1705L213.551 56.2771C213.013 56.0279 213.926 56.349 214.451 57.1131C214.871 57.7248 214.831 58.2453 214.789 57.7581C214.721 56.9636 214.73 55.2473 214.747 51.1255L208.106 51.0978L208.109 51.1006ZM208.14 43.9116L208.109 51.1006L214.749 51.1283L214.78 43.9393L208.14 43.9116ZM208.878 41.7829L208.565 42.3338L214.358 45.5199L214.67 44.9691L208.878 41.7829ZM211.122 38.6189C210.24 39.7953 209.18 41.2569 208.881 41.7801L214.67 44.9718C214.639 45.0272 214.654 44.994 214.786 44.803C214.893 44.6452 215.04 44.4403 215.214 44.194C215.564 43.704 216.012 43.095 216.466 42.486L211.119 38.6189H211.122ZM214.219 34.4887C213.453 35.5102 212.06 37.3676 211.122 38.6189L216.469 42.486C217.404 41.2376 218.8 39.3773 219.566 38.3559L214.219 34.4887ZM216.993 30.8043C216.235 31.8064 214.989 33.4645 214.219 34.4887L219.566 38.3559C220.33 37.3372 221.573 35.6846 222.326 34.6908L216.993 30.8043ZM223.332 23.5074C223.239 22.6354 223.552 22.0098 223.557 22.0015C223.614 21.8769 223.647 21.8354 223.585 21.9323C223.473 22.1122 223.227 22.4693 222.734 23.1447C221.767 24.4735 220.037 26.7738 216.993 30.8043L222.326 34.6908C225.355 30.6797 227.128 28.324 228.137 26.9371C228.633 26.2562 228.994 25.7413 229.237 25.3565C229.352 25.1711 229.501 24.9219 229.625 24.6451C229.699 24.4818 230.037 23.7593 229.936 22.8209L223.332 23.5074ZM223.304 23.2389L223.335 23.5157L229.936 22.8153L229.905 22.5385L223.304 23.2389ZM219.904 26.0956L226.576 26.151L226.632 19.6292L219.961 19.5738L219.904 26.0956ZM209.93 24.2299C209.93 24.2299 209.944 24.2493 209.963 24.2714C209.978 24.2908 210.003 24.3184 210.028 24.3517C210.082 24.4153 210.172 24.5233 210.288 24.6451C210.553 24.9219 210.902 25.207 211.361 25.4423C212.148 25.8409 212.965 25.9268 213.456 25.9683C214.521 26.0569 216.449 26.0679 219.904 26.0956L219.961 19.5738C216.297 19.5433 214.755 19.5323 214.022 19.4686C213.613 19.4354 213.946 19.4105 214.414 19.6485C215.028 19.9613 215.406 20.5177 215.15 20.1966L209.93 24.2243V24.2299ZM208.985 13.2873C208.985 17.5447 208.985 19.7648 209.016 20.944C209.031 21.4838 209.053 22.0209 209.138 22.4776C209.186 22.7461 209.276 23.106 209.462 23.4963C209.656 23.8977 209.885 24.1773 209.93 24.2326L215.147 20.1994C215.135 20.1828 215.313 20.3959 215.462 20.706C215.606 21.0022 215.657 21.243 215.674 21.3344C215.691 21.4285 215.671 21.362 215.654 20.778C215.626 19.7094 215.626 17.6084 215.626 13.29H208.985V13.2873ZM212.79 0.495506C212.768 0.501043 212.74 0.506581 212.664 0.52319C212.607 0.534263 212.466 0.561947 212.323 0.595165C212.035 0.66437 211.404 0.835993 210.775 1.30935C209.431 2.3225 209.214 3.82563 209.135 4.43463C208.954 5.82149 208.985 8.49 208.985 13.2873H215.626C215.626 8.08862 215.612 6.10384 215.722 5.25678C215.787 4.74743 215.801 5.74121 214.814 6.48308C214.363 6.8208 213.946 6.91768 213.909 6.92599C213.89 6.93152 213.887 6.93152 213.974 6.91214C214.042 6.8983 214.172 6.87339 214.315 6.84018L212.79 0.492744V0.495506ZM179.01 0.412464C177.322 0.348796 171.282 0.315574 165.682 0.312806C162.86 0.312806 160.115 0.318344 158.032 0.332185C156.992 0.340489 156.107 0.348796 155.459 0.359868C155.137 0.365405 154.858 0.370943 154.641 0.379248C154.588 0.379248 154.143 0.390314 153.782 0.459519L155.053 6.85955C154.771 6.91492 154.562 6.90661 154.881 6.89553C155.039 6.89 155.27 6.88446 155.58 6.87893C156.192 6.86785 157.048 6.85955 158.08 6.85124C160.14 6.8374 162.869 6.8291 165.682 6.83187C171.35 6.83187 177.226 6.86786 178.754 6.92599L179.013 0.409693L179.01 0.412464ZM205.984 13.4063C202.322 4.51214 192.804 0.938418 179.01 0.412464L178.754 6.92876C192.06 7.43534 197.751 10.7987 199.831 15.8506L205.987 13.4063H205.984ZM205.967 24.4652C206.638 22.8679 206.855 20.7226 206.855 18.9399C206.855 17.1516 206.643 15.0091 205.984 13.4063L199.828 15.8506C200.008 16.2907 200.217 17.4395 200.214 18.9343C200.214 20.4347 200.003 21.5641 199.828 21.9766L205.964 24.4679L205.967 24.4652ZM198.76 32.396C200.507 31.3524 201.964 30.295 203.176 28.9745C204.408 27.632 205.254 26.1648 205.967 24.4652L199.831 21.9738C199.315 23.1973 198.833 23.9669 198.244 24.6091C197.632 25.2735 196.776 25.9489 195.313 26.8237L198.76 32.396ZM199.25 28.0666C199.115 28.0029 199.013 27.9558 198.94 27.9171C198.864 27.8783 198.839 27.859 198.844 27.8645C198.844 27.8645 198.92 27.9115 199.03 28.0112C199.132 28.1026 199.349 28.3129 199.543 28.6534C199.752 29.0216 199.941 29.5475 199.921 30.1842C199.901 30.8181 199.684 31.3247 199.464 31.668C199.259 31.9863 199.044 32.1801 198.943 32.2659C198.836 32.3545 198.76 32.3988 198.76 32.3988L195.31 26.8264C195.025 26.9981 194.338 27.4243 193.841 28.1967C193.557 28.6423 193.303 29.2514 193.281 29.9905C193.258 30.7323 193.475 31.3635 193.746 31.8396C194.216 32.6617 194.913 33.1323 195.217 33.3261C195.603 33.5725 196.031 33.7856 196.42 33.9656L199.245 28.0638L199.25 28.0666ZM210.02 42.6133C210.02 39.4189 209.109 36.5123 207.179 33.9877C205.29 31.5157 202.57 29.5974 199.25 28.0666L196.426 33.9683C199.121 35.2112 200.831 36.5455 201.869 37.9019C202.866 39.2085 203.379 40.7116 203.379 42.6133H210.02ZM191.556 62.0487C197.055 61.0328 201.688 58.8321 204.969 55.4522C208.289 52.0335 210.02 47.6127 210.02 42.6133H203.379C203.379 46.057 202.227 48.8279 200.163 50.9511C198.064 53.113 194.817 54.8099 190.327 55.6404L191.556 62.0487ZM171.073 62.6328C188.421 62.5941 188.483 62.6162 191.556 62.0487L190.327 55.6404C188.024 56.0667 188.81 56.0722 171.056 56.111L171.073 62.6328ZM150.476 60.4072C150.416 60.3103 150.38 60.2356 150.394 60.266C150.394 60.2688 150.425 60.3269 150.453 60.3823C150.484 60.4432 150.538 60.5428 150.608 60.6536C150.983 61.2598 151.544 61.7802 152.302 62.1152C152.874 62.3671 153.438 62.4557 153.804 62.4999C154.216 62.5498 154.698 62.5802 155.242 62.5996C157.378 62.6799 161.812 62.655 171.071 62.6328L171.054 56.111C161.662 56.1331 157.451 56.1553 155.493 56.0833C155.013 56.0667 154.754 56.0446 154.624 56.0279C154.45 56.0058 154.672 56.0141 155.013 56.1636C155.543 56.3961 155.986 56.7975 156.273 57.2625C156.352 57.3899 156.411 57.5144 156.364 57.4203C156.338 57.3677 156.256 57.2044 156.138 57.0134L150.47 60.4072H150.476ZM150.185 3.24431C150.042 3.58202 149.988 3.87546 149.98 3.92528C149.96 4.03324 149.946 4.12736 149.94 4.18272C149.926 4.29899 149.918 4.40971 149.912 4.49276C149.901 4.66715 149.889 4.87754 149.881 5.10176C149.864 5.55851 149.85 6.18965 149.836 6.95367C149.81 8.48724 149.791 10.6326 149.774 13.1738C149.743 18.2617 149.732 24.9801 149.74 31.6901C149.748 38.3974 149.774 45.1047 149.816 50.1649C149.836 52.6951 149.861 54.821 149.892 56.338C149.906 57.0937 149.923 57.7138 149.94 58.1594C149.949 58.3781 149.96 58.5857 149.971 58.7601C149.977 58.8404 149.988 58.9594 150.005 59.084C150.013 59.1421 150.03 59.2556 150.061 59.3913C150.061 59.3968 150.154 59.8896 150.476 60.4072L156.146 57.0162C156.341 57.329 156.434 57.6003 156.465 57.6999C156.507 57.8272 156.533 57.9324 156.547 57.9906C156.572 58.1068 156.583 58.1927 156.589 58.2203C156.597 58.2812 156.597 58.3089 156.595 58.2757C156.592 58.2203 156.583 58.1041 156.575 57.9075C156.561 57.5255 156.544 56.958 156.53 56.2134C156.502 54.7352 156.476 52.6342 156.454 50.1123C156.411 45.0715 156.386 38.3836 156.378 31.6818C156.369 24.9828 156.38 18.2811 156.411 13.2125C156.426 10.6769 156.448 8.55921 156.473 7.06163C156.488 6.30868 156.499 5.72737 156.513 5.33429C156.521 5.13221 156.527 5.00764 156.533 4.93844C156.533 4.90245 156.533 4.91629 156.53 4.95781C156.53 4.97719 156.519 5.04086 156.504 5.12667C156.499 5.15435 156.451 5.4284 156.313 5.75782L150.185 3.24708V3.24431ZM153.782 0.46229C152.392 0.728035 150.898 1.56956 150.185 3.24154L156.31 5.75782C156.161 6.10661 155.918 6.39449 155.642 6.5938C155.38 6.78204 155.152 6.84294 155.053 6.86232L153.782 0.46229ZM113.595 0.949492C113.133 0.700356 112.71 0.620072 112.676 0.614536C112.541 0.586854 112.428 0.57025 112.361 0.559177C112.223 0.5398 112.084 0.528723 111.98 0.520419C111.76 0.50381 111.49 0.489971 111.197 0.478898C110.605 0.453984 109.799 0.431842 108.866 0.412464C106.991 0.37371 104.531 0.343258 102.059 0.323881C99.5871 0.307272 97.087 0.301733 95.1394 0.312806C94.167 0.318342 93.3187 0.329419 92.6704 0.34326C92.3491 0.351564 92.0588 0.359871 91.822 0.370943C91.6811 0.379248 91.2978 0.395853 90.9539 0.46229L92.2476 6.85678C92.0306 6.89831 91.9122 6.89554 92.1602 6.8817C92.3124 6.87339 92.5351 6.86509 92.8311 6.85955C93.4173 6.84571 94.2234 6.83464 95.1789 6.8291C97.0899 6.81803 99.5561 6.82357 102.011 6.84018C104.466 6.85678 106.893 6.88723 108.725 6.92599C109.644 6.94537 110.393 6.96751 110.918 6.98689C111.185 6.99796 111.363 7.00904 111.464 7.01457C111.512 7.02011 111.521 7.02011 111.464 7.01457C111.445 7.01457 111.369 7.00073 111.264 6.97858C111.261 6.97858 110.858 6.90384 110.407 6.66301L113.595 0.941188V0.949492ZM116.143 19.1254C116.106 11.1059 116.106 7.24986 116.008 5.39241C115.982 4.91629 115.946 4.46784 115.881 4.06923C115.822 3.71213 115.703 3.11698 115.36 2.51628C114.914 1.73842 114.294 1.28167 113.761 1.0187C113.66 0.968869 113.575 0.932879 113.525 0.910733C113.499 0.89966 113.477 0.891357 113.463 0.88582C113.446 0.877516 113.443 0.877514 113.437 0.874745C113.423 0.869209 113.494 0.896896 113.59 0.949492L110.407 6.67408C110.605 6.77927 110.774 6.85125 110.847 6.8817C110.968 6.93152 110.861 6.89 110.771 6.84571C110.393 6.65747 109.903 6.29761 109.567 5.71352C109.334 5.3066 109.305 4.99933 109.322 5.09899C109.334 5.15989 109.353 5.34259 109.376 5.74121C109.463 7.39104 109.466 10.9814 109.503 19.1586L116.143 19.1309V19.1254ZM116.597 34.6382C116.383 34.1067 116.402 34.1593 116.383 34.0818C116.357 33.9628 116.304 33.6417 116.264 32.6783C116.185 30.7572 116.174 27.0783 116.14 19.1254L109.5 19.153C109.534 27.0036 109.545 30.8652 109.629 32.9386C109.672 33.9711 109.739 34.76 109.889 35.4521C110.049 36.1856 110.306 36.7531 110.413 37.0244L116.591 34.6354L116.597 34.6382ZM120.768 34.2534C120.365 35.6015 119.441 36.0915 118.685 36.1386C117.953 36.1856 117.079 35.8451 116.594 34.6382L110.416 37.0272C111.966 40.8943 115.526 42.8735 119.111 42.6466C122.676 42.4223 125.957 40.0417 127.138 36.0887L120.765 34.2562L120.768 34.2534ZM121.045 19.0645C121.045 26.2368 121.042 29.8742 120.991 31.895C120.94 33.8465 120.853 33.9794 120.771 34.2534L127.144 36.086C127.46 35.0285 127.575 34.2507 127.631 32.0555C127.685 29.9295 127.688 26.1814 127.688 19.0617H121.047L121.045 19.0645ZM123.75 0.902429C123.821 0.869211 123.872 0.849838 123.838 0.863679C123.835 0.863679 123.779 0.885823 123.733 0.9052C123.68 0.927345 123.595 0.960562 123.497 1.00762C123.001 1.24015 122.361 1.66091 121.879 2.4277C121.49 3.045 121.346 3.66784 121.278 4.05539C121.202 4.47615 121.163 4.9412 121.135 5.42563C121.028 7.29415 121.047 11.1447 121.047 19.07H127.688C127.688 10.9648 127.671 7.41872 127.764 5.78826C127.786 5.39518 127.809 5.2291 127.817 5.18757C127.832 5.11283 127.789 5.44224 127.527 5.86024C127.169 6.42771 126.679 6.74605 126.357 6.89553C126.276 6.93429 126.191 6.96474 126.298 6.92322C126.366 6.89554 126.527 6.83464 126.713 6.74329L123.756 0.9052L123.75 0.902429ZM147.663 0.938417C147.285 0.733571 146.947 0.650525 146.854 0.625611C146.707 0.589625 146.583 0.567477 146.501 0.553636C146.338 0.525954 146.18 0.50935 146.056 0.498277C145.805 0.476132 145.504 0.456751 145.188 0.44291C144.548 0.41246 143.694 0.390315 142.719 0.373706C140.757 0.337719 138.207 0.321115 135.661 0.326651C133.116 0.32942 130.56 0.351562 128.593 0.393085C127.612 0.412462 126.755 0.437376 126.109 0.470594C125.791 0.487203 125.489 0.50381 125.239 0.528723C125.117 0.539796 124.959 0.556406 124.802 0.581319C124.79 0.581319 124.277 0.647759 123.747 0.9052L126.699 6.74606C126.383 6.90108 126.121 6.96197 126.064 6.97581C125.966 7.00073 125.895 7.0118 125.873 7.01457C125.825 7.02288 125.813 7.02288 125.87 7.01457C125.974 7.00627 126.157 6.99243 126.439 6.97858C126.992 6.9509 127.775 6.92876 128.733 6.90938C130.644 6.87063 133.153 6.84848 135.673 6.84571C138.192 6.84294 140.698 6.85678 142.598 6.89277C143.553 6.90938 144.331 6.93152 144.878 6.95643C145.157 6.97028 145.335 6.98135 145.433 6.98965C145.487 6.99519 145.47 6.99519 145.414 6.98412C145.385 6.97858 145.306 6.96474 145.197 6.93706C145.14 6.92322 144.83 6.84571 144.469 6.65194L147.666 0.935646L147.663 0.938417ZM150.337 19.2001C150.337 11.3689 150.354 7.49346 150.236 5.56404C150.205 5.063 150.16 4.58134 150.078 4.14673C150.002 3.72874 149.856 3.1502 149.512 2.56888C149.106 1.88237 148.576 1.44776 148.102 1.16817C147.919 1.06021 147.75 0.979941 147.702 0.957796C147.626 0.92181 147.64 0.927344 147.657 0.938417L144.464 6.6547C144.607 6.73221 144.74 6.79588 144.777 6.81249C144.841 6.84294 144.774 6.81249 144.686 6.76267C144.404 6.59658 144.035 6.29761 143.768 5.84363C143.562 5.49484 143.528 5.24017 143.542 5.31768C143.553 5.37858 143.579 5.55851 143.604 5.9599C143.708 7.63188 143.694 11.1862 143.694 19.2029H150.335L150.337 19.2001ZM149.968 38.1898C150.295 35.4078 150.337 32.5372 150.337 19.2001H143.697C143.697 32.742 143.643 35.131 143.37 37.4424L149.965 38.1898H149.968ZM118.762 64.3131C127.448 64.302 134.819 62.0875 140.298 57.5283C145.797 52.9497 149.016 46.3172 149.968 38.1898L143.373 37.4424C142.57 44.2881 139.96 49.2597 136.005 52.5511C132.028 55.8618 126.321 57.7802 118.753 57.7913L118.762 64.3131ZM104.635 61.9657C108.296 63.4688 113.767 64.3186 118.762 64.3131L118.753 57.7913C114.32 57.7968 109.793 57.0162 107.197 55.9504L104.635 61.9657ZM87.1827 37.7275C87.9494 43.6846 89.6208 48.695 92.5379 52.7864C95.4805 56.9082 99.5222 59.8646 104.632 61.9657L107.194 55.9504C103.026 54.2369 100.072 51.9836 97.9749 49.0438C95.8553 46.0736 94.4461 42.1704 93.7668 36.9081L87.1799 37.7275H87.1827ZM87.4533 3.08653C87.3011 3.39933 87.2363 3.66508 87.2165 3.74535C87.1884 3.86162 87.1715 3.96127 87.1602 4.0194C87.1404 4.13843 87.1292 4.24639 87.1235 4.31283C87.1094 4.454 87.101 4.60902 87.0925 4.7502C87.0784 5.04362 87.0643 5.43117 87.0531 5.88238C87.0305 6.79034 87.0136 8.04987 86.9995 9.53085C86.9713 12.5011 86.9601 16.4291 86.9629 20.3959C86.9657 24.36 86.9826 28.3711 87.0164 31.513C87.0333 33.0825 87.0531 34.4417 87.0756 35.4714C87.0954 36.396 87.1235 37.2874 87.1799 37.7275L93.7668 36.9081C93.7724 36.9552 93.7612 36.8694 93.7471 36.5206C93.7358 36.2244 93.7245 35.823 93.7133 35.3247C93.6907 34.3337 93.671 33.0022 93.6569 31.4465C93.6259 28.3323 93.6062 24.3434 93.6033 20.3904C93.6005 16.4374 93.6118 12.5343 93.64 9.59175C93.6541 8.11907 93.671 6.89831 93.6907 6.03741C93.702 5.6028 93.7133 5.28446 93.7217 5.07685C93.7217 5.02702 93.7274 4.98826 93.7274 4.95781C93.7274 4.92736 93.7302 4.91629 93.7274 4.91906C93.7274 4.91906 93.7274 4.9329 93.7245 4.9495C93.7245 4.96611 93.7189 4.99657 93.7104 5.03809C93.7048 5.07407 93.6907 5.15435 93.6653 5.25678C93.6484 5.32045 93.5892 5.57511 93.4399 5.88238L87.442 3.08375L87.4533 3.08653ZM90.9539 0.46229C90.3254 0.584089 89.6095 0.824923 88.933 1.31212C88.2369 1.81316 87.7662 2.4443 87.4533 3.08929L93.454 5.88238C93.3638 6.06785 93.1777 6.3419 92.8592 6.57166C92.5577 6.78758 92.304 6.84571 92.2504 6.85678L90.9567 0.459519L90.9539 0.46229ZM73.3184 0.891354C72.9069 0.689277 72.5405 0.620075 72.4926 0.609003C72.3657 0.581321 72.2558 0.567482 72.1881 0.559177C72.05 0.5398 71.9176 0.528723 71.8133 0.520419C71.5963 0.50381 71.3285 0.489971 71.041 0.478898C70.4576 0.453984 69.6656 0.431842 68.7495 0.412464C66.9119 0.37371 64.5049 0.343258 62.0866 0.323881C59.6683 0.307272 57.2246 0.301733 55.3164 0.312806C54.3638 0.318342 53.5323 0.329419 52.8981 0.34326C52.5825 0.351564 52.2978 0.359871 52.0639 0.370943C51.9229 0.379248 51.5452 0.395853 51.2042 0.46229L52.4923 6.85955C52.2781 6.90108 52.1625 6.89554 52.4049 6.88447C52.5543 6.87616 52.7713 6.87062 53.0588 6.86232C53.6338 6.84848 54.4202 6.84018 55.3559 6.83187C57.2246 6.8208 59.6344 6.82633 62.0358 6.84294C64.4372 6.85955 66.8104 6.89 68.603 6.92876C69.5021 6.94814 70.2406 6.96751 70.7535 6.98965C71.0157 7.00072 71.1904 7.0118 71.2919 7.01733C71.3454 7.02287 71.3398 7.02287 71.2975 7.01733C71.2778 7.01733 71.2073 7.00626 71.1115 6.98412C71.0946 6.98135 70.7479 6.91769 70.3505 6.72115L73.3156 0.88582L73.3184 0.891354ZM76.0467 22.5662C76.0157 12.5897 76.0214 7.88654 75.9171 5.66923C75.8889 5.10452 75.8522 4.59795 75.7874 4.16611C75.731 3.79518 75.6127 3.13635 75.2378 2.49136C74.722 1.60001 73.9751 1.12942 73.3635 0.891354C73.2113 0.830454 72.9661 0.752949 73.0591 0.783399C73.0732 0.788936 73.1803 0.824918 73.3184 0.891354L70.3561 6.72668C70.607 6.84848 70.8212 6.92322 70.9367 6.96198C71.1284 7.02564 70.9734 6.97581 70.9085 6.94813C70.466 6.7765 69.8629 6.39727 69.4711 5.7163C69.2174 5.27892 69.1977 4.95227 69.2231 5.12113C69.24 5.22909 69.2653 5.47823 69.2879 5.97373C69.3837 8.00281 69.3809 12.4623 69.4119 22.5856L76.0524 22.5662H76.0467ZM75.4605 38.4832C76.2243 39.3137 76.213 40.2632 76.182 39.9088C76.1623 39.6929 76.1426 39.1836 76.1228 38.0043C76.089 35.704 76.0721 31.2638 76.0467 22.569L69.4063 22.5883C69.4344 31.2583 69.4485 35.751 69.4852 38.0984C69.5021 39.2417 69.5246 39.9836 69.5669 40.4708C69.5979 40.814 69.6656 41.913 70.5337 42.8569L75.4605 38.486V38.4832ZM79.8968 37.6445C76.5287 37.6445 74.9419 37.6389 74.147 37.614C73.682 37.5974 73.7722 37.578 74.0089 37.6334C74.1921 37.6777 74.5304 37.7801 74.9024 38.0182C75.2603 38.2479 75.4858 38.5109 75.4577 38.4805L70.5365 42.8569C70.5619 42.8846 70.8353 43.1974 71.2609 43.4715C71.7006 43.7538 72.129 43.895 72.4475 43.9725C72.9576 44.0943 73.5129 44.1165 73.9159 44.1303C74.8545 44.1635 76.6076 44.1635 79.8912 44.1663L79.8968 37.6445ZM90.2577 39.1337C89.99 38.8708 89.4686 38.3863 88.5892 38.0735C87.9184 37.8355 87.225 37.7663 86.6557 37.7275C85.4832 37.65 83.4566 37.6472 79.894 37.6445L79.8884 44.1663C83.5976 44.1663 85.3169 44.1746 86.2019 44.2355C86.6641 44.2659 86.5767 44.2964 86.3231 44.2078C86.1483 44.1441 85.9538 44.05 85.7706 43.9172C85.6128 43.8064 85.5198 43.7068 85.5593 43.7483L90.2549 39.1365L90.2577 39.1337ZM90.61 39.4798L90.2577 39.1337L85.5621 43.7455L85.9144 44.0916L90.61 39.4798ZM91.6106 50.068L91.5796 41.7746L84.9392 41.7967L84.9702 50.0902L91.6106 50.068ZM91.6416 58.3615L91.6106 50.068L84.9702 50.0902L85.0012 58.3837L91.6416 58.3615ZM90.8158 60.5705L91.0723 60.194L85.5677 56.5484L85.3112 56.9248L90.8158 60.5705ZM69.4429 62.6605C79.0851 62.6605 83.7188 62.6716 85.9679 62.5913C86.5401 62.5719 87.0305 62.5442 87.442 62.4999C87.8141 62.4584 88.3327 62.3865 88.8569 62.1927C89.5306 61.9435 90.1337 61.5255 90.596 60.9138C90.7594 60.6951 90.875 60.4902 90.8863 60.4709C90.9201 60.4127 90.8778 60.4875 90.8214 60.5677L85.314 56.9276C85.1985 57.0965 85.1111 57.2515 85.1026 57.2681C85.0717 57.3234 85.1449 57.1878 85.2605 57.0356C85.6213 56.5567 86.0948 56.2466 86.5147 56.0916C86.7853 55.992 86.929 55.9947 86.7205 56.0169C86.5514 56.0362 86.2498 56.0556 85.7368 56.075C83.6427 56.1497 79.2035 56.1387 69.4485 56.1387V62.6605H69.4429ZM47.9093 60.4044C47.8445 60.2992 47.8023 60.2134 47.8192 60.2439C47.8192 60.2439 47.8502 60.3048 47.8783 60.3629C47.9122 60.4293 47.9657 60.5318 48.0418 60.6508C48.4421 61.2958 49.0339 61.8107 49.7893 62.129C50.353 62.3671 50.9139 62.4501 51.286 62.4944C51.7031 62.5442 52.1963 62.5719 52.7685 62.5941C55.0092 62.6771 59.6739 62.6633 69.4485 62.6605V56.1387C59.5499 56.1387 55.0938 56.1525 53.0193 56.075C52.5092 56.0556 52.2245 56.0335 52.0751 56.0169C51.8778 55.9947 52.078 55.9947 52.4049 56.1331C52.9235 56.3518 53.397 56.7477 53.7099 57.2515C53.7973 57.3926 53.8593 57.5283 53.8142 57.4314C53.7888 57.3788 53.7071 57.2072 53.583 57.0079L47.915 60.4017L47.9093 60.4044ZM47.619 3.24154C47.4753 3.57926 47.4218 3.87269 47.4133 3.92251C47.3936 4.03047 47.3795 4.12459 47.3738 4.17995C47.3597 4.29621 47.3513 4.40694 47.3456 4.48999C47.3344 4.66438 47.3231 4.87477 47.3146 5.09899C47.2977 5.55574 47.2836 6.18688 47.2695 6.9509C47.2442 8.48447 47.2244 10.6298 47.2075 13.171C47.1765 18.2589 47.1653 24.9773 47.1737 31.6873C47.1822 38.3946 47.2075 45.1019 47.2498 50.1622C47.2695 52.6923 47.2949 54.8182 47.3259 56.3352C47.34 57.0909 47.3569 57.711 47.3738 58.1567C47.3823 58.3754 47.3936 58.583 47.4048 58.7574C47.4105 58.8376 47.4217 58.9567 47.4387 59.0812C47.4471 59.1394 47.464 59.2529 47.495 59.3885C47.495 59.3941 47.588 59.8868 47.9093 60.4044L53.5802 57.0134C53.7747 57.3262 53.8677 57.5975 53.8987 57.6971C53.941 57.8245 53.9664 57.9297 53.9805 57.9878C54.0058 58.1041 54.0171 58.1899 54.0227 58.2176C54.0312 58.2785 54.0312 58.3061 54.0284 58.2729C54.0227 58.2176 54.0171 58.1013 54.0086 57.9048C53.9946 57.5228 53.9776 56.9553 53.9636 56.2106C53.9354 54.7324 53.91 52.6314 53.8874 50.1096C53.8452 45.0687 53.8198 38.3808 53.8113 31.679C53.8029 24.98 53.8142 18.2783 53.8452 13.2097C53.8593 10.6741 53.8818 8.55644 53.9072 7.05885C53.9213 6.30591 53.9326 5.7246 53.9466 5.33151C53.9551 5.12944 53.9607 5.00487 53.9664 4.93567C53.9664 4.89968 53.9664 4.91352 53.9636 4.95505C53.9636 4.97442 53.9523 5.03809 53.9382 5.1239C53.9325 5.15158 53.8846 5.42563 53.7465 5.75505L47.619 3.24431V3.24154ZM51.2042 0.459519C49.8231 0.7308 48.3321 1.56956 47.6219 3.236L53.7465 5.75505C53.6 6.10107 53.3576 6.38896 53.0814 6.58827C52.8192 6.77651 52.5966 6.8374 52.5007 6.85401L51.2042 0.459519ZM42.9516 0.215926C42.5231 0.157794 41.7001 0.124572 40.9645 0.0996588C40.1274 0.071977 39.0958 0.0470634 38.0755 0.0304544C37.0524 0.0138453 36.0264 0 35.2006 0C34.496 0 33.6532 6.41858e-06 33.2164 0.0498336L33.9633 6.53014C33.921 6.53568 34.2846 6.51907 35.1865 6.52184C35.9672 6.52184 36.9565 6.53567 37.9571 6.55228C38.9549 6.56889 39.9498 6.5938 40.7418 6.61872C41.1392 6.63256 41.4746 6.6464 41.7283 6.65747C42.0299 6.67408 42.1004 6.68239 42.0468 6.67408L42.9544 0.213155L42.9516 0.215926ZM47.0413 2.57164C46.61 1.87406 45.9871 1.22907 45.0683 0.788933C44.3129 0.429069 43.5265 0.293435 42.9516 0.215926L42.0412 6.67408C42.2328 6.699 42.323 6.71837 42.3512 6.72668C42.3794 6.73222 42.2977 6.71561 42.1596 6.65194C42.0074 6.57997 41.827 6.46647 41.6578 6.30592C41.4944 6.15367 41.3985 6.01249 41.3563 5.94605L47.0356 2.56888L47.0413 2.57164ZM46.8609 25.5586C47.1906 25.1185 47.3259 24.7005 47.3626 24.5953C47.4189 24.4236 47.4527 24.2769 47.4725 24.1856C47.5091 24.0029 47.5317 23.834 47.5458 23.7122C47.5739 23.4603 47.5965 23.1669 47.6134 22.8735C47.65 22.2728 47.6782 21.4728 47.698 20.562C47.743 18.735 47.7656 16.3516 47.7684 13.9793C47.7684 11.607 47.7515 9.21804 47.7092 7.37996C47.6895 6.4637 47.6613 5.65816 47.6275 5.04916C47.6106 4.7502 47.588 4.45677 47.5598 4.20486C47.5458 4.08306 47.526 3.91974 47.4922 3.74812C47.4922 3.74812 47.402 3.15573 47.0413 2.56888L41.3619 5.94882C41.1449 5.59726 41.0547 5.29276 41.0321 5.21802C40.9955 5.09899 40.9786 5.01041 40.9729 4.97719C40.9589 4.90522 40.956 4.87754 40.9617 4.92183C40.9701 4.99934 40.9842 5.15712 40.9983 5.41456C41.0265 5.91561 41.0519 6.6381 41.0716 7.52945C41.1111 9.30108 41.1308 11.6347 41.1308 13.9793C41.1308 16.3212 41.1054 18.6492 41.0631 20.4098C41.0406 21.2956 41.0152 22.007 40.987 22.4998C40.9729 22.7517 40.9589 22.9011 40.9504 22.9676C40.9448 23.0063 40.9504 22.9676 40.9673 22.879C40.9758 22.8375 40.9983 22.7295 41.0462 22.5911C41.0716 22.5164 41.1956 22.1205 41.5169 21.6942L46.8637 25.5586H46.8609ZM39.6849 27.524C41.4859 27.524 42.8135 27.524 43.6957 27.4022C44.2171 27.3275 44.9302 27.1725 45.6376 26.724C46.3338 26.2839 46.734 25.7275 46.8609 25.5586L41.5141 21.6942C41.4098 21.8326 41.6212 21.5115 42.0355 21.2458C42.4611 20.9745 42.8078 20.9385 42.7486 20.9468C42.6725 20.9579 42.447 20.9773 41.8946 20.9883C41.3675 20.9994 40.6629 21.0022 39.6821 21.0022V27.524H39.6849ZM35.0343 28.0361C35.6347 27.7233 35.7812 27.6818 36.1054 27.6347C36.6634 27.5545 37.5653 27.5268 39.6849 27.5268V21.0049C37.7063 21.0049 36.2773 21.0188 35.1414 21.1821C33.7716 21.3786 32.8612 21.7828 31.9114 22.2811L35.0343 28.0361ZM35.0174 34.868C32.1679 33.4507 32.0579 29.5946 35.0343 28.0361L31.9114 22.2811C24.307 26.2589 24.2478 36.8196 32.0128 40.6839L35.0146 34.868H35.0174ZM39.5721 35.333C37.54 35.3413 36.6493 35.3192 36.0913 35.2445C35.7474 35.1974 35.5811 35.1503 35.0174 34.868L32.0157 40.6839C32.9627 41.1545 33.8618 41.5255 35.1893 41.7054C36.3027 41.8549 37.695 41.8632 39.6032 41.8549L39.5721 35.333ZM46.8552 37.3483C46.7368 37.1905 46.3422 36.6341 45.6742 36.1884C44.9612 35.7095 44.234 35.5323 43.6731 35.4493C42.7571 35.3137 41.3901 35.3247 39.575 35.333L39.6032 41.8549C40.6009 41.8493 41.3112 41.8493 41.8439 41.8576C42.4019 41.8687 42.6161 41.8881 42.6782 41.8964C42.7063 41.9019 42.3512 41.8549 41.9313 41.5725C41.5564 41.3206 41.3647 41.0216 41.5028 41.2071L46.8552 37.3483ZM46.9482 60.7062C47.2329 60.2937 47.3541 59.9089 47.3879 59.8037C47.4387 59.6404 47.4697 59.4965 47.4894 59.4107C47.526 59.2307 47.5486 59.0619 47.5598 58.9428C47.588 58.6882 47.6106 58.392 47.6275 58.093C47.6613 57.4812 47.6895 56.6674 47.7092 55.7428C47.7515 53.8854 47.7684 51.466 47.7656 49.0632C47.7628 46.6576 47.7374 44.2438 47.6923 42.3891C47.6698 41.4673 47.6416 40.6563 47.605 40.0473C47.588 39.7483 47.5655 39.4521 47.5345 39.2002C47.5204 39.0784 47.4978 38.9095 47.4584 38.7268C47.4387 38.6382 47.4076 38.4915 47.3513 38.3199C47.3175 38.2147 47.1822 37.7967 46.8524 37.3566L41.4972 41.2099C41.1787 40.7836 41.0547 40.3905 41.0321 40.3185C40.987 40.1801 40.9645 40.0721 40.956 40.0306C40.9391 39.9476 40.9363 39.9061 40.9391 39.9476C40.9476 40.0196 40.9617 40.1718 40.9758 40.4265C41.0068 40.9275 41.0321 41.65 41.0547 42.5497C41.0998 44.3352 41.1223 46.6964 41.128 49.0715C41.1308 51.4466 41.1111 53.8106 41.0716 55.6016C41.0519 56.5013 41.0265 57.2293 40.9983 57.7331C40.9842 57.9906 40.9701 58.1456 40.9617 58.2203C40.956 58.2619 40.9617 58.2286 40.9758 58.1484C40.9842 58.1096 41.004 58.01 41.0462 57.8799C41.0688 57.8051 41.1787 57.448 41.4549 57.0494L46.9482 60.7117V60.7062ZM41.8946 62.9761C42.6951 62.9207 43.6618 62.846 44.4989 62.5664C45.7109 62.1622 46.4437 61.437 46.9482 60.7062L41.4549 57.0466C41.4549 57.0466 41.5507 56.9027 41.765 56.7311C41.8721 56.6452 41.9848 56.5705 42.1004 56.5096C42.2131 56.4515 42.3061 56.4155 42.3653 56.3933C42.4668 56.3601 42.4781 56.3712 42.2892 56.3933C42.1088 56.4183 41.8411 56.4432 41.4211 56.4736L41.8974 62.9788L41.8946 62.9761ZM10.8992 53.7746C18.7009 61.0882 28.8871 63.8923 41.8946 62.9761L41.4211 56.4708C29.7017 57.2958 21.5617 54.7546 15.485 49.0577L10.9021 53.7746H10.8992ZM2.48312 24.4458C0.0760985 35.2445 3.19621 46.5525 10.8992 53.7746L15.4822 49.0577C9.63091 43.5739 7.00123 34.6604 8.96856 25.8409L2.48312 24.4458ZM31.6408 0.204851C17.2156 1.57787 5.4454 11.1475 2.48312 24.4458L8.96856 25.8382C11.2544 15.5738 20.4343 7.82011 32.2806 6.69346L31.6408 0.20208V0.204851ZM33.2079 0.0498336C33.0275 0.0692109 32.3257 0.141183 31.6408 0.204851L32.2834 6.69623C32.9542 6.63256 33.7181 6.55782 33.9689 6.52737L33.2079 0.0498336ZM181.406 43.8756L182.094 47.0646H182.097L181.406 43.8756ZM182.094 37.4202L183.19 34.342L182.097 37.4202H182.094ZM175.673 19.1364L176.998 22.1261H177.001L175.673 19.1364ZM175.71 25.816L176.902 22.7738L175.713 25.816H175.71ZM256.706 3.67338L257.408 0.487202H257.402L256.706 3.67338ZM257.949 4.55366H261.269V3.32459L260.443 2.40279L257.949 4.55366ZM242.943 39.9448L239.657 40.4016V40.4126L242.943 39.9448ZM242.977 40.1773L239.69 40.6452L240.099 43.4161L242.952 43.4383L242.977 40.1773ZM258.789 41.2791H262.109V40.2355L261.492 39.3857L258.789 41.2791ZM212.131 59.2224L213.554 56.2771H213.551L212.131 59.2224ZM211.46 43.9227L208.563 42.331L208.143 43.0673V43.9116L211.46 43.9255V43.9227ZM211.773 43.3718L208.878 41.7774L211.776 43.3718H211.773ZM226.629 23.1586L229.93 22.8153V22.8098L226.629 23.1586ZM226.598 22.8818L229.899 22.533L229.583 19.6458L226.627 19.6209L226.598 22.8818ZM212.534 22.2063L215.144 20.1911L212.537 22.2063H212.534ZM213.549 3.65953L212.788 0.487202L213.551 3.65953H213.549ZM154.413 3.654L155.047 6.85401L154.41 3.654H154.413ZM112 3.80071L110.407 6.66025H110.41L112 3.80071ZM146.067 3.7841L144.469 6.64087L146.065 3.7841H146.067ZM90.4776 37.3095L93.7724 36.8998L90.4804 37.3095H90.4776ZM91.5994 3.65123L92.2448 6.84848L91.5965 3.65123H91.5994ZM72.9999 40.659L70.5365 42.8459L72.9971 40.659H72.9999ZM88.265 41.7746L91.5853 41.7635L91.5796 40.4209L90.6129 39.4715L88.265 41.7774V41.7746ZM88.327 58.3615L91.0808 60.183L91.6529 59.3525V58.3504L88.3299 58.3615H88.327ZM50.6856 4.48999L47.6247 3.23047L50.6884 4.48999H50.6856ZM51.8553 3.65123L51.2098 0.453985H51.207L51.8553 3.65123ZM44.203 4.25193L41.3619 5.94052L44.2002 4.25193H44.203ZM33.5179 37.769L35.0202 34.8597L33.5208 37.769H33.5179ZM44.2058 58.8681L41.4606 57.0356L44.2086 58.8681H44.2058ZM33.5912 3.28306L33.2164 0.0442919H33.2107L33.5912 3.28306Z" fill="#1D1D1D"/>
<path fill-rule="evenodd" clip-rule="evenodd" d="M182.095 37.4265C185.559 38.6168 185.08 43.1151 181.408 43.8819C181.097 43.9456 179.787 44.0259 178.49 44.0563C174.914 44.1421 175.052 44.2916 175.097 40.4521C175.128 37.5815 175.148 37.4847 175.683 37.2577C176.137 37.0667 181.455 37.2051 182.095 37.4265ZM180.407 19.1039C183.987 19.7517 184.64 24.167 181.371 25.6202C180.756 25.8943 176.32 26.0521 175.711 25.8223C175.148 25.6092 175.071 25.2133 175.071 22.4728C175.071 19.7323 175.133 19.3725 175.675 19.1399C176.112 18.9517 179.432 18.9268 180.407 19.1012V19.1039ZM213.553 3.67412C212.217 3.98416 212.304 3.29488 212.304 13.2908C212.304 21.8694 212.304 21.9303 212.538 22.2181C213 22.7939 212.812 22.7801 219.931 22.8382L226.603 22.8936L226.634 23.1704C226.662 23.4389 225.737 24.7123 219.661 32.7538C218.905 33.7532 217.659 35.4085 216.896 36.43C216.129 37.4514 214.734 39.3117 213.798 40.5601C212.859 41.8086 211.952 43.0792 211.78 43.3837L211.467 43.9345L211.436 51.1235C211.399 59.1207 211.38 58.8827 212.138 59.2343C212.721 59.5055 257.592 59.5 258.063 59.2287C258.838 58.7803 258.796 59.3034 258.796 49.8252V41.2881L258.531 40.9227C258.066 40.2833 258.274 40.3027 250.329 40.2418L242.984 40.1864L242.95 39.9539C242.916 39.7103 243.412 38.9629 247.581 32.9725C252.513 25.886 253.816 24.0092 255.856 21.0223C258.195 17.6008 257.956 18.7469 257.956 11.0541V4.5627L257.615 4.18069C257.364 3.90111 257.127 3.76824 256.713 3.68243C256.045 3.54125 214.164 3.53571 213.558 3.67412H213.553ZM154.417 3.66858C153.839 3.77931 153.434 4.06997 153.248 4.50457C152.957 5.18832 153.016 58.2432 153.31 58.7138C153.78 59.4695 152.411 59.4197 171.064 59.3754C188.615 59.3339 188.251 59.345 190.94 58.8467C200.929 57.0003 206.698 51.057 206.698 42.6169C206.698 37.5206 203.851 33.7947 197.837 31.021C196.475 30.3926 196.287 30.0632 197.033 29.6147C200.244 27.6992 201.667 26.1462 202.896 23.2258C203.742 21.2161 203.747 16.679 202.904 14.6333C200.035 7.6603 192.431 4.19454 178.879 3.67689C175.661 3.55509 155.051 3.54678 154.414 3.66858H154.417ZM91.6036 3.66858C91.0314 3.77931 90.6791 4.03398 90.4564 4.4935C90.2197 4.9807 90.245 35.4833 90.4818 37.3269C91.9277 48.5463 96.6403 55.1539 105.922 58.9657C109.05 60.2502 114.047 61.0668 118.763 61.0585C135.017 61.0363 144.922 52.7927 146.678 37.8224C146.976 35.2757 147.024 32.6459 147.024 19.2064C147.024 3.35854 147.086 4.34955 146.072 3.80145C145.516 3.50249 125.852 3.52741 125.234 3.82914C124.301 4.28589 124.372 3.04021 124.372 19.0735C124.372 33.3628 124.36 33.8473 123.963 35.1788C122.382 40.4826 115.55 40.9144 113.515 35.8404C112.869 34.2321 112.9 34.949 112.83 19.1482C112.757 2.95163 112.83 4.2582 112.007 3.81806C111.621 3.61045 92.6126 3.47481 91.6064 3.67135L91.6036 3.66858ZM51.8539 3.66858C51.2761 3.78207 50.8702 4.07274 50.6842 4.50735C50.3939 5.19109 50.4531 58.246 50.7462 58.7166C51.2084 59.464 49.7738 59.4114 69.4471 59.4086C88.8442 59.4086 87.5928 59.4502 88.0691 58.7553L88.3256 58.3789L88.2946 50.0854L88.2636 41.792L87.9113 41.4459C87.3871 40.9311 87.1672 40.9144 79.8954 40.9117C73.2465 40.9061 73.2099 40.9061 72.9985 40.6764C72.7899 40.4494 72.7843 39.9511 72.7279 22.5836C72.6659 2.4838 72.7504 4.26375 71.8344 3.8153C71.4144 3.61046 52.8516 3.47204 51.8482 3.66858H51.8539ZM33.5926 3.30042C33.3756 3.32533 32.6456 3.3973 31.9663 3.46097C18.8292 4.71218 8.35553 13.3738 5.73148 25.1552C3.54712 34.9656 6.4192 45.075 13.1978 51.428C20.137 57.9332 29.3 60.6045 41.6621 59.7353C43.4152 59.6107 43.7929 59.4862 44.2072 58.8855C44.5511 58.3872 44.5285 39.7518 44.1818 39.2895C43.6717 38.6058 43.5449 38.5892 39.5905 38.6058C35.6502 38.6224 35.0301 38.5393 33.5193 37.7864C28.2121 35.1455 28.1867 27.9372 33.4771 25.169C35.0273 24.358 35.591 24.2777 39.6863 24.2749C43.5787 24.2749 43.7281 24.2528 44.1903 23.6355C44.5313 23.1815 44.5426 4.82015 44.2044 4.26928C43.9028 3.77931 43.5139 3.59384 42.502 3.45543C41.6395 3.33917 34.3846 3.21183 33.5926 3.29764V3.30042Z" fill="#FDF9F5"/>
</svg>
