<svg width="500" height="72" viewBox="0 0 500 72" fill="none" xmlns="http://www.w3.org/2000/svg">
<g clip-path="url(#clip0_2386_2536)">
<path d="M110.512 55.9664C105.421 55.9664 101.527 54 98.832 49.916C96.1366 45.8319 94.6391 40.9916 94.6391 35.2437C94.6391 29.3445 95.9868 24.5042 98.832 20.7227C101.677 16.7899 105.571 14.8235 110.812 14.8235C116.053 14.8235 119.946 16.9412 122.641 21.0252C125.337 25.2605 126.685 29.9496 126.685 35.2437C126.685 40.9916 125.337 45.9832 122.492 49.916C119.796 54 115.753 55.9664 110.512 55.9664ZM110.812 22.5378C106.169 22.5378 103.923 26.7731 103.923 35.3949C103.923 44.0168 106.169 48.4034 110.812 48.4034C115.304 48.4034 117.55 44.1681 117.55 35.5462C117.4 26.7731 115.154 22.5378 110.812 22.5378Z" fill="#4F4F4F"/>
<path d="M141.36 47.4958H156.334V55.3613H132.375V15.4286H141.36V47.4958Z" fill="#4F4F4F"/>
<path d="M169.512 15.4286V55.3613H160.677V15.4286H169.512Z" fill="#4F4F4F"/>
<path d="M205.001 15.4286L193.621 55.3613H184.187L172.956 15.4286H182.39L189.877 44.0168L197.664 15.4286H205.001Z" fill="#4F4F4F"/>
<path d="M235.25 23.1428H217.43V31.3109H231.506V38.8739H217.43V47.647H235.25V55.5126H208.446V15.4286H235.25V23.1428Z" fill="#4F4F4F"/>
<path d="M249.326 15.4286V55.3613H240.491V15.4286H249.326Z" fill="#4F4F4F"/>
<path d="M265.648 39.6302V55.5126H256.813V15.4286H273.285C276.28 15.4286 278.826 15.7311 280.623 16.4874C282.42 17.2437 284.067 18.605 285.265 20.5714C286.463 22.5378 287.062 24.8067 287.062 27.2269C287.062 32.0672 284.816 35.3949 280.473 37.5126L287.361 55.2101H277.628L271.788 39.3277H265.648V39.6302ZM265.648 22.5378V32.6723H271.039C272.836 32.6723 274.034 32.521 274.933 32.2185C275.831 31.916 276.43 31.3109 277.029 30.4033C277.628 29.4958 277.928 28.437 277.928 27.2269C277.928 26.1681 277.628 25.1092 277.029 24.2017C276.43 23.2941 275.681 22.8403 274.933 22.5378C274.184 22.3865 272.836 22.2353 270.74 22.2353H265.648V22.5378Z" fill="#4F4F4F"/>
<path d="M312.369 15.4286L324.049 55.3613H314.615L312.369 47.1933H300.24L297.844 55.3613H290.057L302.037 15.4286H312.369ZM302.186 39.7815H310.123L306.229 25.7143L302.186 39.7815Z" fill="#4F4F4F"/>
<path d="M365.978 15.4286V23.2941H356.694V55.3613H347.709V23.4454H338.425V15.5798H365.978V15.4286Z" fill="#4F4F4F"/>
<path d="M378.556 39.6302V55.5126H369.721V15.4286H386.193C389.188 15.4286 391.734 15.7311 393.531 16.4874C395.328 17.2437 396.975 18.605 398.173 20.5714C399.371 22.5378 399.97 24.8067 399.97 27.2269C399.97 32.0672 397.724 35.3949 393.381 37.5126L400.269 55.2101H390.536L384.846 39.6302H378.556ZM378.556 22.5378V32.6723H383.947C385.744 32.6723 386.942 32.521 387.841 32.2185C388.739 31.916 389.338 31.3109 389.937 30.4033C390.536 29.4958 390.836 28.437 390.836 27.2269C390.836 26.1681 390.536 25.1092 389.937 24.2017C389.338 23.2941 388.589 22.8403 387.841 22.5378C387.092 22.3865 385.744 22.2353 383.648 22.2353H378.556V22.5378Z" fill="#4F4F4F"/>
<path d="M435.759 15.4286V40.2353C435.759 44.3193 435.31 47.1933 434.412 49.1596C433.513 51.126 432.016 52.7899 429.62 54C427.224 55.2101 424.528 55.9664 420.785 55.9664C417.041 55.9664 414.346 55.3613 412.099 54.3025C410.003 53.2437 408.356 51.5798 407.308 49.4622C406.259 47.3445 405.66 44.3193 405.66 40.3865V15.4286H415.244V40.2353C415.244 42.3529 415.394 44.0168 415.693 44.9244C415.993 45.9832 416.742 46.7395 417.79 47.3445C418.838 47.9496 420.036 48.2521 421.533 48.2521C423.181 48.2521 424.528 47.9496 425.577 47.3445C426.625 46.7395 427.374 45.9832 427.673 45.0756C427.972 44.1681 428.122 42.5042 428.122 40.2353V15.4286H435.759Z" fill="#4F4F4F"/>
<path d="M468.703 24.2017L461.216 26.9244C460.168 23.7479 458.071 22.2353 454.777 22.2353C451.333 22.2353 449.536 23.4454 449.536 25.8655C449.536 26.7731 449.835 27.6807 450.584 28.2857C451.183 28.8907 452.68 29.4958 454.927 29.9496C458.82 30.7059 461.515 31.6134 463.312 32.3697C465.109 33.2773 466.607 34.4874 467.805 36.4538C469.003 38.2689 469.602 40.3865 469.602 42.6555C469.602 46.2857 468.254 49.3109 465.708 52.0336C463.163 54.605 459.269 55.9664 454.028 55.9664C450.135 55.9664 446.84 55.0588 444.145 53.2437C441.45 51.4286 439.653 48.5546 438.754 44.9244L446.84 42.958C447.739 46.7395 450.285 48.5546 454.477 48.5546C456.424 48.5546 457.922 48.1008 458.97 47.3445C460.018 46.5882 460.467 45.5294 460.467 44.3193C460.467 43.1092 460.018 42.2017 459.12 41.5966C458.221 40.9916 456.424 40.3865 453.878 39.7815C449.087 38.7227 445.642 37.3613 443.696 35.3949C441.599 33.5798 440.701 30.8571 440.701 27.3781C440.701 23.8991 441.899 20.8739 444.295 18.4538C446.691 16.0336 449.985 14.8235 454.178 14.8235C461.965 14.8235 466.607 18 468.703 24.2017Z" fill="#4F4F4F"/>
<path d="M499.551 15.4286V23.2941H490.267V55.3613H481.282V23.4454H471.998V15.5798H499.551V15.4286Z" fill="#4F4F4F"/>
<path fill-rule="evenodd" clip-rule="evenodd" d="M49.1165 72H10.7817C5.09136 72 0.449249 67.3109 0.449249 61.563V42.2017C6.43907 47.1933 13.9263 50.2185 22.3121 50.2185C22.6116 50.2185 23.0608 50.2185 23.3603 50.2185H49.1165V72ZM72.3271 50.3697V61.563C72.3271 67.3109 67.685 72 61.9946 72H59.7484V50.3697H72.3271ZM54.0581 0H61.8449C67.5352 0 72.1773 4.68908 72.1773 10.437V39.1765H47.1698C53.1596 32.6723 56.9033 23.8992 56.9033 14.0672C56.9033 9.07563 55.8551 4.38655 54.0581 0ZM10.7817 0H39.5328C42.6775 3.93277 44.4744 8.92437 44.4744 14.3697C44.4744 27.0756 34.4415 37.3613 22.1623 37.3613C11.5304 37.3613 2.69543 29.7983 0.449249 19.5126V10.437C0.449249 9.52941 0.598995 8.62185 0.74874 7.86555C0.898486 7.56302 1.04823 7.2605 1.04823 6.80672C2.54569 2.87395 6.43907 0 10.7817 0Z" fill="#D40000"/>
</g>
<defs>
<clipPath id="clip0_2386_2536">
<rect width="500" height="72" fill="white"/>
</clipPath>
</defs>
</svg>
